<svg width="131" height="31" viewBox="0 0 131 31" fill="none" xmlns="http://www.w3.org/2000/svg">
<g clip-path="url(#clip0)">
<path d="M43.9329 20.1742C43.9329 17.8891 45.7761 16.6993 50.0569 16.2272C50.0246 15.0799 49.5961 14.1262 48.1676 14.1262C47.1163 14.1948 46.1039 14.5591 45.2416 15.179L44.32 13.5077C45.5872 12.6334 47.0692 12.1426 48.5962 12.0913C51.1997 12.0913 52.4807 13.7343 52.4807 16.704V23.0447H50.4762L50.2919 21.8644H50.2274C49.3511 22.715 48.2073 23.2172 47.0018 23.2808C46.5965 23.3021 46.1912 23.2366 45.8119 23.0885C45.4326 22.9405 45.0876 22.713 44.7989 22.4207C44.5101 22.1284 44.284 21.7777 44.1349 21.3909C43.9858 21.0041 43.917 20.5897 43.9329 20.1742ZM50.0569 20.1742V17.7852C47.2322 18.1487 46.2922 18.9041 46.2922 19.9853C46.2922 20.9296 46.9189 21.3403 47.7944 21.3403C48.6699 21.3403 49.3058 20.9154 50.0569 20.1836V20.1742Z" fill="#6B4DFF"/>
<path d="M54.1387 12.3696H56.6132L58.2674 17.9077C58.5577 18.9606 58.8618 20.0512 59.1521 21.1229H59.2351C59.5254 20.0512 59.8295 18.9606 60.1198 17.9077L61.7741 12.3696H64.1334L60.5944 23.0445H57.7698L54.1387 12.3696Z" fill="#6B4DFF"/>
<path d="M65.9355 20.3016V7.6958H68.3778V20.4433C68.3778 21.0571 68.6496 21.2742 68.9031 21.2742C69.0318 21.2775 69.1604 21.2632 69.2855 21.2317L69.5897 23.1203C69.179 23.2776 68.7423 23.3513 68.304 23.3374C66.5714 23.3044 65.9355 22.1571 65.9355 20.3016Z" fill="#6B4DFF"/>
<path d="M70.9951 17.7143C70.9951 14.1591 73.3544 12.1101 75.9487 12.1101C78.543 12.1101 80.9023 14.1639 80.9023 17.7143C80.9023 21.2647 78.5476 23.3043 75.9487 23.3043C73.3498 23.3043 70.9951 21.2458 70.9951 17.7143ZM78.3955 17.7143C78.3955 15.5755 77.4739 14.1497 75.9487 14.1497C74.4234 14.1497 73.5065 15.5661 73.5065 17.7143C73.5065 19.8625 74.4281 21.26 75.9487 21.26C77.4693 21.26 78.3955 19.853 78.3955 17.7143Z" fill="#6B4DFF"/>
<path opacity="0.7" d="M30.4126 20.212C30.4223 19.7049 30.3899 19.1979 30.3159 18.6964C29.3877 12.8935 26.7454 7.52157 22.745 3.30503C21.824 2.28288 20.7104 1.46263 19.4713 0.893827C18.2323 0.325025 16.8935 0.0194799 15.536 -0.00434915C14.1785 -0.0281782 12.8303 0.230203 11.573 0.755185C10.3157 1.28017 9.17525 2.06085 8.22065 3.05008C4.08274 7.12759 1.26498 12.4073 0.147487 18.1771C0.0584947 18.6758 0.00918086 19.181 3.22126e-05 19.6879C-0.00515474 21.7156 0.616193 23.6928 1.77505 25.3365C2.93391 26.9801 4.5708 28.2058 6.45119 28.8378C6.45119 28.8378 12.4876 31.1984 22.2796 29.4751C26.8276 28.7433 30.3389 24.9002 30.4126 20.212Z" fill="url(#paint0_linear)"/>
<path opacity="0.7" d="M29.5828 24.9755C29.5828 24.9755 46.6784 6.37362 20.1918 4.09796C-6.29484 1.8223 -0.392025 16.142 8.36773 23.4977C17.2795 30.981 21.7769 32.8506 29.5828 24.9755Z" fill="url(#paint1_linear)"/>
<path opacity="0.51" d="M17.2523 30.9667C17.2523 30.9667 39.6563 29.0452 24.4223 10.5849C9.18837 -7.87532 3.95832 5.75505 4.85227 16.4157C5.75543 27.2605 7.4143 31.4153 17.2523 30.9667Z" fill="url(#paint2_linear)"/>
<path d="M81.9756 21.7179C81.9882 21.3949 82.0933 21.0829 82.2777 20.8207C82.4621 20.5584 82.7178 20.3576 83.0128 20.2431C83.3078 20.1286 83.6291 20.1055 83.9368 20.1767C84.2446 20.248 84.525 20.4104 84.7433 20.6437C84.9616 20.877 85.1082 21.1709 85.1646 21.4889C85.2211 21.8069 85.1851 22.1349 85.061 22.4321C84.9369 22.7293 84.7302 22.9825 84.4668 23.1602C84.2033 23.3379 83.8946 23.4324 83.5791 23.4317C83.3632 23.4299 83.1497 23.3839 82.9514 23.2962C82.7531 23.2086 82.5739 23.0811 82.4245 22.9214C82.275 22.7617 82.1583 22.5729 82.0812 22.3662C82.0041 22.1595 81.9682 21.939 81.9756 21.7179Z" fill="#FF4A2E"/>
<path d="M87.0908 21.9163L88.2336 20.3016C89.0431 21.0393 90.0772 21.4664 91.1597 21.5103C92.3163 21.5103 92.86 20.9532 92.86 20.2119C92.86 19.3007 91.7126 18.8947 90.556 18.4509C89.1736 17.9174 87.5793 17.0959 87.5793 15.2829C87.5793 13.4699 89.063 12.0347 91.4407 12.0347C92.7241 12.0495 93.9649 12.5087 94.9612 13.3377L93.8231 14.9005C93.1739 14.3406 92.3661 14.0095 91.5191 13.9562C90.45 13.9562 89.9478 14.4756 89.9478 15.1602C89.9478 16.0147 91.0168 16.3452 92.1642 16.7796C93.5973 17.3272 95.2055 18.0354 95.2055 20.0609C95.2055 21.9494 93.7632 23.4319 91.0859 23.4319C89.628 23.3893 88.2243 22.8568 87.0908 21.9163Z" fill="#FF4A2E"/>
<path d="M97.4355 7.55396H99.9192V11.5954L99.8179 13.6916C100.707 12.8324 101.762 12.0439 103.214 12.0439C105.481 12.0439 106.476 13.6208 106.476 16.3639V23.1625H103.988V16.6755C103.988 14.8861 103.486 14.2157 102.338 14.2157C101.417 14.2157 100.795 14.6878 99.9192 15.5707V23.1625H97.4355V7.55396Z" fill="#FF4A2E"/>
<path d="M108.78 17.7378C108.78 14.1166 111.181 12.0298 113.849 12.0298C116.517 12.0298 118.886 14.1166 118.886 17.7378C118.886 21.3591 116.485 23.4034 113.844 23.4034C111.204 23.4034 108.78 21.3402 108.78 17.7378ZM116.314 17.7378C116.314 15.5613 115.393 14.1072 113.826 14.1072C112.259 14.1072 111.338 15.5613 111.338 17.7378C111.338 19.9143 112.259 21.3496 113.826 21.3496C115.393 21.3496 116.314 19.9143 116.314 17.7378Z" fill="#FF4A2E"/>
<path d="M121.332 12.2752H123.373L123.562 13.4367H123.631C124.502 12.597 125.632 12.0959 126.825 12.0203C129.479 12.0203 131 14.1968 131 17.5489C131 21.2693 128.829 23.4175 126.475 23.4175C125.453 23.3692 124.483 22.9451 123.742 22.223L123.82 24.0265V27.4542H121.332V12.2752ZM128.442 17.5678C128.442 15.4007 127.751 14.1165 126.138 14.1165C125.373 14.1165 124.645 14.5131 123.834 15.3393V20.4194C124.415 20.9699 125.168 21.2897 125.958 21.3212C127.364 21.3212 128.442 20.0465 128.442 17.5867V17.5678Z" fill="#FF4A2E"/>
<path d="M20.0447 16.8549H17.9711C17.8313 16.8523 17.6923 16.8787 17.5626 16.9324C17.4329 16.986 17.3151 17.0659 17.2162 17.1673C17.1172 17.2686 17.0393 17.3893 16.9869 17.5222C16.9345 17.6551 16.9088 17.7975 16.9113 17.9408V19.5838C16.9173 19.866 17.0323 20.1342 17.2309 20.3298C17.4295 20.5253 17.6957 20.6323 17.9711 20.6272H20.0447C20.3197 20.6272 20.5834 20.5153 20.7778 20.3161C20.9723 20.1169 21.0815 19.8467 21.0815 19.5649V17.9408C21.084 17.7995 21.059 17.6591 21.008 17.5278C20.9571 17.3964 20.8812 17.2768 20.7847 17.1758C20.6882 17.0747 20.5732 16.9943 20.4461 16.9393C20.3191 16.8842 20.1827 16.8555 20.0447 16.8549ZM20.3258 19.5649C20.3258 19.6413 20.2962 19.7146 20.2435 19.7686C20.1908 19.8226 20.1193 19.8529 20.0447 19.8529H17.9711C17.9338 19.8536 17.8968 19.8466 17.8622 19.8324C17.8275 19.8182 17.796 19.7971 17.7694 19.7703C17.7428 19.7435 17.7217 19.7115 17.7073 19.6762C17.6929 19.641 17.6854 19.6031 17.6854 19.5649V17.9408C17.6854 17.8632 17.7155 17.7887 17.7691 17.7338C17.8227 17.6789 17.8954 17.6481 17.9711 17.6481H20.0447C20.082 17.6481 20.119 17.6557 20.1534 17.6704C20.1878 17.6852 20.219 17.7069 20.2451 17.7341C20.2713 17.7613 20.2919 17.7937 20.3057 17.8291C20.3196 17.8646 20.3264 17.9026 20.3258 17.9408V19.5649Z" fill="white"/>
<path d="M24.5006 13.8663C24.5024 13.7996 24.4848 13.7339 24.4499 13.6775L22.1459 9.55108C22.113 9.49167 22.0655 9.44212 22.0081 9.40734C21.9507 9.37255 21.8854 9.35375 21.8187 9.35278H11.7688C11.7019 9.35278 11.6362 9.37118 11.5787 9.40606C11.5211 9.44094 11.4738 9.49103 11.4416 9.55108L9.1376 13.6775C9.10479 13.7348 9.08731 13.7999 9.08691 13.8663C9.08754 14.3054 9.21235 14.7348 9.44625 15.1026C9.68014 15.4705 10.0131 15.761 10.4048 15.939V22.7424C10.4048 22.845 10.4446 22.9435 10.5155 23.0161C10.5863 23.0887 10.6824 23.1295 10.7826 23.1295H22.7634C22.8636 23.1295 22.9597 23.0887 23.0306 23.0161C23.1014 22.9435 23.1412 22.845 23.1412 22.7424V15.9862C23.1437 15.9722 23.1437 15.9578 23.1412 15.9437C23.5414 15.7718 23.8835 15.4833 24.1252 15.114C24.3668 14.7448 24.4973 14.3109 24.5006 13.8663ZM11.9807 10.1318H21.6114L23.4039 13.3564H10.202L11.9807 10.1318ZM20.0539 14.1307C19.9935 14.4739 19.8174 14.7843 19.5563 15.0079C19.2952 15.2315 18.9657 15.354 18.6254 15.354C18.2851 15.354 17.9557 15.2315 17.6946 15.0079C17.4335 14.7843 17.2573 14.4739 17.1969 14.1307H20.0539ZM16.3952 14.1307C16.3321 14.4723 16.1547 14.7806 15.8935 15.0024C15.6322 15.2241 15.3036 15.3455 14.9644 15.3455C14.6251 15.3455 14.2965 15.2241 14.0353 15.0024C13.7741 14.7806 13.5966 14.4723 13.5336 14.1307H16.3952ZM9.87488 14.1307H12.7364C12.6734 14.4723 12.496 14.7806 12.2347 15.0024C11.9735 15.2241 11.6449 15.3455 11.3057 15.3455C10.9664 15.3455 10.6378 15.2241 10.3766 15.0024C10.1153 14.7806 9.9379 14.4723 9.87488 14.1307ZM15.4459 22.3552H13.2756V18.1816C13.2755 18.1083 13.2898 18.0356 13.3175 17.968C13.3451 17.9004 13.3857 17.839 13.4367 17.7876C13.4878 17.7362 13.5483 17.6957 13.6148 17.6685C13.6812 17.6413 13.7523 17.628 13.8239 17.6292H14.9206C15.0636 17.6292 15.2007 17.6874 15.3018 17.791C15.4029 17.8946 15.4597 18.0351 15.4597 18.1816V22.3552H15.4459ZM22.4224 22.3552H16.2016V18.1816C16.2004 17.8301 16.0636 17.4934 15.821 17.2449C15.5785 16.9963 15.2498 16.8562 14.9068 16.8549H13.8239C13.4809 16.8562 13.1522 16.9963 12.9097 17.2449C12.6671 17.4934 12.5303 17.8301 12.5291 18.1816V22.3599H11.1928V16.1278H11.3264C11.6904 16.1301 12.0493 16.0398 12.371 15.8651C12.6926 15.6905 12.967 15.4368 13.1696 15.1269C13.3706 15.4396 13.6442 15.6962 13.966 15.8738C14.2877 16.0513 14.6474 16.1443 15.0128 16.1443C15.3782 16.1443 15.7379 16.0513 16.0596 15.8738C16.3813 15.6962 16.6549 15.4396 16.856 15.1269C17.0568 15.4346 17.3286 15.6869 17.6473 15.8613C17.966 16.0358 18.3217 16.127 18.683 16.127C19.0443 16.127 19.4001 16.0358 19.7187 15.8613C20.0374 15.6869 20.3092 15.4346 20.5101 15.1269C20.7126 15.4368 20.987 15.6905 21.3087 15.8651C21.6303 16.0398 21.9892 16.1301 22.3533 16.1278H22.4823V22.3552H22.4224ZM22.2934 15.3583C21.9525 15.3581 21.6225 15.235 21.3613 15.0105C21.1002 14.7861 20.9244 14.4746 20.8649 14.1307H23.7218C23.6615 14.4742 23.4855 14.7852 23.2245 15.0094C22.9635 15.2337 22.634 15.3572 22.2934 15.3583Z" fill="white"/>
</g>
<defs>
<linearGradient id="paint0_linear" x1="8.8894" y1="1.85975" x2="19.7977" y2="30.7184" gradientUnits="userSpaceOnUse">
<stop stop-color="#C5FF48"/>
<stop offset="0.83" stop-color="#8C6EDD"/>
<stop offset="1" stop-color="#8050FB"/>
</linearGradient>
<linearGradient id="paint1_linear" x1="0.967327" y1="16.9588" x2="35.011" y2="16.9588" gradientUnits="userSpaceOnUse">
<stop stop-color="#FF50F0"/>
<stop offset="0.04" stop-color="#F750F1"/>
<stop offset="0.25" stop-color="#CC50F4"/>
<stop offset="0.46" stop-color="#AB50F7"/>
<stop offset="0.66" stop-color="#9350F9"/>
<stop offset="0.84" stop-color="#8550FB"/>
<stop offset="1" stop-color="#8050FB"/>
</linearGradient>
<linearGradient id="paint2_linear" x1="22.1515" y1="30.2149" x2="7.69397" y2="2.98134" gradientUnits="userSpaceOnUse">
<stop stop-color="#61C2DA"/>
<stop offset="0.07" stop-color="#5EB3D2"/>
<stop offset="0.27" stop-color="#568CBC"/>
<stop offset="0.46" stop-color="#506DAB"/>
<stop offset="0.65" stop-color="#4C579F"/>
<stop offset="0.83" stop-color="#494A97"/>
<stop offset="1" stop-color="#484595"/>
</linearGradient>
<clipPath id="clip0">
<rect width="131" height="31" fill="white"/>
</clipPath>
</defs>
</svg>
