<svg width="206" height="49" viewBox="0 0 206 49" fill="none" xmlns="http://www.w3.org/2000/svg">
<g clip-path="url(#clip0)">
<path d="M69.0846 31.8881C69.0846 28.2761 71.983 26.3955 78.7147 25.6493C78.664 23.8358 77.9901 22.3284 75.7438 22.3284C74.0906 22.4368 72.4985 23.0126 71.1425 23.9925L69.6933 21.3507C71.6861 19.9688 74.0165 19.1929 76.4177 19.1119C80.5117 19.1119 82.5261 21.709 82.5261 26.403V36.4254H79.3741L79.0842 34.5597H78.9828C77.6048 35.9042 75.8062 36.6981 73.9105 36.7985C73.2731 36.8322 72.6358 36.7287 72.0394 36.4946C71.4429 36.2606 70.9004 35.9011 70.4463 35.4391C69.9923 34.9771 69.6367 34.4227 69.4022 33.8113C69.1678 33.1999 69.0596 32.5449 69.0846 31.8881ZM78.7147 31.8881V28.1119C74.2728 28.6866 72.7946 29.8806 72.7946 31.5896C72.7946 33.0821 73.7801 33.7313 75.1568 33.7313C76.5336 33.7313 77.5336 33.0597 78.7147 31.903V31.8881Z" fill="white"/>
<path d="M85.1348 19.5522H89.0259L91.6273 28.306C92.0838 29.9702 92.562 31.694 93.0185 33.3881H93.149C93.6055 31.694 94.0837 29.9702 94.5402 28.306L97.1416 19.5522H100.852L95.2866 36.4254H90.8447L85.1348 19.5522Z" fill="white"/>
<path d="M103.685 32.0896V12.1642H107.526V32.3134C107.526 33.2836 107.953 33.6269 108.352 33.6269C108.554 33.632 108.756 33.6094 108.953 33.5597L109.431 36.5448C108.785 36.7934 108.099 36.91 107.41 36.8881C104.685 36.8358 103.685 35.0224 103.685 32.0896Z" fill="white"/>
<path d="M111.641 28C111.641 22.3806 115.351 19.1418 119.431 19.1418C123.51 19.1418 127.22 22.3881 127.22 28C127.22 33.6119 123.518 36.8358 119.431 36.8358C115.344 36.8358 111.641 33.5821 111.641 28ZM123.278 28C123.278 24.6194 121.829 22.3657 119.431 22.3657C117.032 22.3657 115.59 24.6045 115.59 28C115.59 31.3955 117.039 33.6045 119.431 33.6045C121.822 33.6045 123.278 31.3806 123.278 28Z" fill="white"/>
<path d="M128.909 34.3284C128.929 33.8179 129.094 33.3247 129.384 32.9102C129.674 32.4957 130.076 32.1782 130.54 31.9972C131.004 31.8163 131.509 31.7798 131.993 31.8924C132.477 32.005 132.918 32.2617 133.261 32.6305C133.604 32.9992 133.835 33.4639 133.924 33.9665C134.012 34.4692 133.956 34.9876 133.761 35.4573C133.565 35.927 133.241 36.3273 132.826 36.6082C132.412 36.8891 131.926 37.0384 131.43 37.0373C131.091 37.0345 130.755 36.9617 130.443 36.8232C130.131 36.6847 129.85 36.4832 129.615 36.2307C129.38 35.9782 129.196 35.6798 129.075 35.3531C128.954 35.0264 128.897 34.6779 128.909 34.3284Z" fill="white"/>
<path d="M136.952 34.6418L138.749 32.0896C140.022 33.2554 141.648 33.9306 143.35 34C145.169 34 146.024 33.1194 146.024 31.9478C146.024 30.5075 144.22 29.8657 142.401 29.1642C140.227 28.3209 137.72 27.0224 137.72 24.1567C137.72 21.291 140.053 19.0224 143.792 19.0224C145.81 19.0458 147.761 19.7717 149.328 21.0821L147.538 23.5522C146.517 22.6672 145.247 22.1439 143.915 22.0597C142.234 22.0597 141.444 22.8806 141.444 23.9627C141.444 25.3134 143.125 25.8358 144.93 26.5224C147.183 27.3881 149.712 28.5075 149.712 31.709C149.712 34.694 147.444 37.0373 143.234 37.0373C140.942 36.97 138.734 36.1283 136.952 34.6418Z" fill="white"/>
<path d="M153.219 11.9403H157.125V18.3284L156.965 21.6418C158.364 20.2836 160.023 19.0373 162.306 19.0373C165.878 19.0373 167.436 21.5299 167.436 25.8657V36.6119H163.523V26.3582C163.523 23.5299 162.733 22.4702 160.929 22.4702C159.48 22.4702 158.502 23.2164 157.125 24.6119V36.6119H153.219V11.9403Z" fill="white"/>
<path d="M171.059 28.0373C171.059 22.3134 174.834 19.0149 179.03 19.0149C183.225 19.0149 186.95 22.3134 186.95 28.0373C186.95 33.7612 183.175 36.9925 179.023 36.9925C174.871 36.9925 171.059 33.7313 171.059 28.0373ZM182.906 28.0373C182.906 24.597 181.457 22.2985 178.994 22.2985C176.53 22.2985 175.081 24.597 175.081 28.0373C175.081 31.4776 176.53 33.7463 178.994 33.7463C181.457 33.7463 182.906 31.4776 182.906 28.0373Z" fill="white"/>
<path d="M190.797 19.403H194.007L194.304 21.2388H194.413C195.782 19.9116 197.558 19.1195 199.435 19C203.609 19 206 22.4403 206 27.7388C206 33.6194 202.587 37.0149 198.884 37.0149C197.278 36.9386 195.752 36.2683 194.587 35.1269L194.71 37.9776V43.3955H190.797V19.403ZM201.978 27.7687C201.978 24.3433 200.891 22.3134 198.355 22.3134C197.152 22.3134 196.007 22.9403 194.732 24.2463V32.2761C195.645 33.1461 196.83 33.6516 198.072 33.7015C200.283 33.7015 201.978 31.6866 201.978 27.7985V27.7687Z" fill="white"/>
<path opacity="0.51" d="M20.0428 22.3358H15.543C15.6421 22.8757 15.9211 23.363 16.3319 23.7135C16.7427 24.0641 17.2594 24.256 17.7929 24.256C18.3264 24.256 18.8431 24.0641 19.2539 23.7135C19.6647 23.363 19.9437 22.8757 20.0428 22.3358Z" fill="url(#paint0_linear)"/>
<path opacity="0.51" d="M23.4485 27.8657H21.7384C21.5136 27.8657 21.2979 27.9577 21.1389 28.1214C20.9799 28.2851 20.8906 28.5072 20.8906 28.7388V35.3358H24.3108V28.7388C24.3108 28.6229 24.2884 28.5081 24.2449 28.4012C24.2014 28.2943 24.1376 28.1973 24.0574 28.1161C23.9771 28.0348 23.8819 27.9708 23.7774 27.9278C23.6729 27.8848 23.5611 27.8637 23.4485 27.8657Z" fill="url(#paint1_linear)"/>
<path opacity="0.51" d="M31.5207 27.8657H28.2238C27.9796 27.8657 27.7817 28.0695 27.7817 28.3209V30.9254C27.7817 31.1768 27.9796 31.3806 28.2238 31.3806H31.5207C31.7649 31.3806 31.9628 31.1768 31.9628 30.9254V28.3209C31.9628 28.0695 31.7649 27.8657 31.5207 27.8657Z" fill="url(#paint2_linear)"/>
<path opacity="0.51" d="M23.5499 24.2687C24.0849 24.2687 24.603 24.0752 25.0135 23.7219C25.4241 23.3686 25.7011 22.878 25.7962 22.3358H21.2964C21.3944 22.878 21.6732 23.3679 22.0847 23.7208C22.4962 24.0738 23.0144 24.2675 23.5499 24.2687Z" fill="url(#paint3_linear)"/>
<path opacity="0.51" d="M38.4048 16.7313C14.4926 -12.4552 6.22474 9.09702 7.63049 25.9478C9.07971 43.1119 11.6593 49.6567 27.1298 48.9478C27.1298 48.9478 62.3605 45.9104 38.4048 16.7313ZM36.4411 25.2015C36.445 25.2237 36.445 25.2465 36.4411 25.2687V35.9478C36.4411 36.1101 36.3785 36.2657 36.267 36.3805C36.1556 36.4952 36.0045 36.5597 35.8469 36.5597H17.007C16.8494 36.5597 16.6983 36.4952 16.5868 36.3805C16.4754 36.2657 16.4128 36.1101 16.4128 35.9478V25.194C15.7968 24.9127 15.2733 24.4535 14.9055 23.8721C14.5377 23.2906 14.3414 22.6119 14.3404 21.9179C14.341 21.8129 14.3685 21.71 14.4201 21.6194L18.0432 15.097C18.0938 15.0021 18.1683 14.9229 18.2588 14.8678C18.3493 14.8127 18.4525 14.7836 18.5576 14.7836H34.3325C34.4373 14.7851 34.5399 14.8148 34.6302 14.8698C34.7204 14.9248 34.7951 15.0031 34.8469 15.097L38.47 21.6194C38.5248 21.7085 38.5526 21.8125 38.5497 21.9179C38.547 22.6173 38.3461 23.3006 37.9714 23.884C37.5968 24.4673 37.0649 24.9252 36.4411 25.2015Z" fill="url(#paint4_linear)"/>
<path opacity="0.51" d="M29.3034 24.2687C29.8384 24.2687 30.3564 24.0752 30.767 23.7219C31.1776 23.3686 31.4546 22.878 31.5497 22.3358H27.0571C27.1522 22.878 27.4293 23.3686 27.8398 23.7219C28.2504 24.0752 28.7684 24.2687 29.3034 24.2687Z" fill="url(#paint5_linear)"/>
<path opacity="0.51" d="M35.0564 24.2761C35.592 24.2744 36.1101 24.0793 36.5206 23.7248C36.931 23.3702 37.2077 22.8788 37.3027 22.3358H32.8101C32.9037 22.8794 33.18 23.3717 33.5907 23.7265C34.0015 24.0813 34.5203 24.2758 35.0564 24.2761Z" fill="url(#paint6_linear)"/>
<path opacity="0.51" d="M33.9844 16.0149H18.8545L16.043 21.1194H36.8031L33.9844 16.0149Z" fill="url(#paint7_linear)"/>
<path opacity="0.51" d="M32.1726 23.9179C31.8567 24.4043 31.4293 24.803 30.9282 25.0787C30.427 25.3545 29.8676 25.4987 29.2995 25.4987C28.7313 25.4987 28.1719 25.3545 27.6708 25.0787C27.1696 24.803 26.7422 24.4043 26.4264 23.9179C26.1088 24.4043 25.68 24.8028 25.1778 25.0783C24.6755 25.3538 24.1151 25.498 23.546 25.498C22.977 25.498 22.4166 25.3538 21.9143 25.0783C21.412 24.8028 20.9833 24.4043 20.6657 23.9179C20.3472 24.4078 19.9157 24.8087 19.4099 25.0847C18.9041 25.3608 18.3397 25.5035 17.7673 25.5H17.5571V35.3507H19.6585V28.7388C19.6594 28.4599 19.7142 28.184 19.8195 27.927C19.9249 27.6701 20.0788 27.4373 20.2723 27.2422C20.4658 27.0471 20.6951 26.8935 20.9467 26.7905C21.1984 26.6874 21.4674 26.6368 21.7381 26.6418H23.4627C24.0022 26.6438 24.519 26.8653 24.9004 27.2582C25.2818 27.651 25.497 28.1832 25.4989 28.7388V35.3358H35.2811V25.4925H35.0783C34.5052 25.4981 33.9398 25.3572 33.4327 25.0823C32.9256 24.8075 32.4926 24.4074 32.1726 23.9179ZM33.1508 30.9254C33.1508 31.3707 32.979 31.7978 32.6733 32.1127C32.3675 32.4276 31.9528 32.6045 31.5204 32.6045H28.2597C27.8266 32.6045 27.4111 32.4278 27.1042 32.1131C26.7973 31.7984 26.6239 31.3714 26.622 30.9254V28.3582C26.6182 28.1342 26.6577 27.9117 26.7383 27.7036C26.8188 27.4955 26.9389 27.3061 27.0913 27.1463C27.2438 26.9865 27.4256 26.8596 27.6262 26.773C27.8268 26.6863 28.0421 26.6418 28.2597 26.6418H31.5204C31.7373 26.6427 31.9519 26.6881 32.1516 26.7751C32.3514 26.8622 32.5324 26.9892 32.684 27.1489C32.8357 27.3086 32.9551 27.4978 33.0352 27.7053C33.1153 27.9129 33.1546 28.1349 33.1508 28.3582V30.9254Z" fill="url(#paint8_linear)"/>
<path opacity="0.7" d="M20.0428 22.3358H15.543C15.6421 22.8757 15.9211 23.363 16.3319 23.7135C16.7427 24.0641 17.2594 24.256 17.7929 24.256C18.3264 24.256 18.8431 24.0641 19.2539 23.7135C19.6647 23.363 19.9437 22.8757 20.0428 22.3358Z" fill="url(#paint9_linear)"/>
<path opacity="0.7" d="M23.5499 24.2687C24.0849 24.2687 24.603 24.0752 25.0135 23.7219C25.4241 23.3686 25.7011 22.878 25.7962 22.3358H21.2964C21.3944 22.878 21.6732 23.3679 22.0847 23.7208C22.4962 24.0738 23.0144 24.2675 23.5499 24.2687Z" fill="url(#paint10_linear)"/>
<path opacity="0.7" d="M33.9844 16.0149H18.8545L16.043 21.1194H36.8031L33.9844 16.0149Z" fill="url(#paint11_linear)"/>
<path opacity="0.7" d="M31.5207 27.8657H28.2238C27.9796 27.8657 27.7817 28.0695 27.7817 28.3209V30.9254C27.7817 31.1768 27.9796 31.3806 28.2238 31.3806H31.5207C31.7649 31.3806 31.9628 31.1768 31.9628 30.9254V28.3209C31.9628 28.0695 31.7649 27.8657 31.5207 27.8657Z" fill="url(#paint12_linear)"/>
<path opacity="0.7" d="M29.3034 24.2687C29.8384 24.2687 30.3564 24.0752 30.767 23.7219C31.1776 23.3686 31.4546 22.878 31.5497 22.3358H27.0571C27.1522 22.878 27.4293 23.3686 27.8398 23.7219C28.2504 24.0752 28.7684 24.2687 29.3034 24.2687Z" fill="url(#paint13_linear)"/>
<path opacity="0.7" d="M23.4485 27.8657H21.7384C21.5136 27.8657 21.2979 27.9577 21.1389 28.1214C20.9799 28.2851 20.8906 28.5072 20.8906 28.7388V35.3358H24.3108V28.7388C24.3108 28.6229 24.2884 28.5081 24.2449 28.4012C24.2014 28.2943 24.1376 28.1973 24.0574 28.1161C23.9771 28.0348 23.8819 27.9708 23.7774 27.9278C23.6729 27.8848 23.5611 27.8637 23.4485 27.8657Z" fill="url(#paint14_linear)"/>
<path opacity="0.7" d="M35.0564 24.2761C35.592 24.2744 36.1101 24.0793 36.5206 23.7248C36.931 23.3702 37.2077 22.8788 37.3027 22.3358H32.8101C32.9037 22.8794 33.18 23.3717 33.5907 23.7265C34.0015 24.0813 34.5203 24.2758 35.0564 24.2761Z" fill="url(#paint15_linear)"/>
<path opacity="0.7" d="M32.1726 23.9179C31.8567 24.4043 31.4293 24.803 30.9282 25.0787C30.427 25.3545 29.8676 25.4987 29.2995 25.4987C28.7313 25.4987 28.1719 25.3545 27.6708 25.0787C27.1696 24.803 26.7422 24.4043 26.4264 23.9179C26.1088 24.4043 25.68 24.8028 25.1778 25.0783C24.6755 25.3538 24.1151 25.498 23.546 25.498C22.977 25.498 22.4166 25.3538 21.9143 25.0783C21.412 24.8028 20.9833 24.4043 20.6657 23.9179C20.3472 24.4078 19.9157 24.8087 19.4099 25.0847C18.9041 25.3608 18.3397 25.5035 17.7673 25.5H17.5571V35.3507H19.6585V28.7388C19.6594 28.4599 19.7142 28.184 19.8195 27.927C19.9249 27.6701 20.0788 27.4373 20.2723 27.2422C20.4658 27.0471 20.6951 26.8935 20.9467 26.7905C21.1984 26.6874 21.4674 26.6368 21.7381 26.6418H23.4627C24.0022 26.6438 24.519 26.8653 24.9004 27.2582C25.2818 27.651 25.497 28.1832 25.4989 28.7388V35.3358H35.2811V25.4925H35.0783C34.5052 25.4981 33.9398 25.3572 33.4327 25.0823C32.9256 24.8075 32.4926 24.4074 32.1726 23.9179ZM33.1508 30.9254C33.1508 31.3707 32.979 31.7978 32.6733 32.1127C32.3675 32.4276 31.9528 32.6045 31.5204 32.6045H28.2597C27.8266 32.6045 27.4111 32.4278 27.1042 32.1131C26.7973 31.7984 26.6239 31.3714 26.622 30.9254V28.3582C26.6182 28.1342 26.6577 27.9117 26.7383 27.7036C26.8188 27.4955 26.9389 27.3061 27.0913 27.1463C27.2438 26.9865 27.4256 26.8596 27.6262 26.773C27.8268 26.6863 28.0421 26.6418 28.2597 26.6418H31.5204C31.7373 26.6427 31.9519 26.6881 32.1516 26.7751C32.3514 26.8622 32.5324 26.9892 32.684 27.1489C32.8357 27.3086 32.9551 27.4978 33.0352 27.7053C33.1153 27.9129 33.1546 28.1349 33.1508 28.3582V30.9254Z" fill="url(#paint16_linear)"/>
<path opacity="0.7" d="M31.7522 6.47761C-9.90577 2.8806 -0.616244 25.5149 13.1586 37.1418C27.1726 48.9701 34.2521 51.9254 46.4908 39.4776C46.5198 39.4776 73.4029 10.0746 31.7522 6.47761ZM36.4404 25.2015C36.4444 25.2237 36.4444 25.2465 36.4404 25.2687V35.9478C36.4404 36.1101 36.3778 36.2657 36.2664 36.3805C36.155 36.4952 36.0038 36.5597 35.8462 36.5597H17.0063C16.8487 36.5597 16.6976 36.4952 16.5862 36.3805C16.4747 36.2657 16.4121 36.1101 16.4121 35.9478V25.194C15.7962 24.9127 15.2726 24.4535 14.9048 23.8721C14.537 23.2906 14.3407 22.6119 14.3398 21.9179C14.3404 21.8129 14.3679 21.71 14.4195 21.6194L18.0425 15.097C18.0931 15.0021 18.1676 14.9229 18.2581 14.8678C18.3486 14.8127 18.4518 14.7836 18.557 14.7836H34.3318C34.4366 14.7851 34.5393 14.8148 34.6295 14.8698C34.7198 14.9248 34.7945 15.0031 34.8463 15.097L38.4693 21.6194C38.5242 21.7085 38.5519 21.8125 38.549 21.9179C38.5464 22.6173 38.3454 23.3006 37.9708 23.884C37.5962 24.4673 37.0643 24.9252 36.4404 25.2015Z" fill="url(#paint17_linear)"/>
<path opacity="0.7" d="M23.5499 24.2687C24.0849 24.2687 24.603 24.0752 25.0135 23.7219C25.4241 23.3686 25.7011 22.878 25.7962 22.3358H21.2964C21.3944 22.878 21.6732 23.3679 22.0847 23.7208C22.4962 24.0738 23.0144 24.2675 23.5499 24.2687Z" fill="url(#paint18_linear)"/>
<path opacity="0.7" d="M31.5207 27.8657H28.2238C27.9796 27.8657 27.7817 28.0695 27.7817 28.3209V30.9254C27.7817 31.1768 27.9796 31.3806 28.2238 31.3806H31.5207C31.7649 31.3806 31.9628 31.1768 31.9628 30.9254V28.3209C31.9628 28.0695 31.7649 27.8657 31.5207 27.8657Z" fill="url(#paint19_linear)"/>
<path opacity="0.7" d="M23.4485 27.8657H21.7384C21.5136 27.8657 21.2979 27.9577 21.1389 28.1214C20.9799 28.2851 20.8906 28.5072 20.8906 28.7388V35.3358H24.3108V28.7388C24.3108 28.6229 24.2884 28.5081 24.2449 28.4012C24.2014 28.2943 24.1376 28.1973 24.0574 28.1161C23.9771 28.0348 23.8819 27.9708 23.7774 27.9278C23.6729 27.8848 23.5611 27.8637 23.4485 27.8657Z" fill="url(#paint20_linear)"/>
<path opacity="0.7" d="M33.9844 16.0149H18.8545L16.043 21.1194H36.8031L33.9844 16.0149Z" fill="url(#paint21_linear)"/>
<path opacity="0.7" d="M29.3034 24.2687C29.8384 24.2687 30.3564 24.0752 30.767 23.7219C31.1776 23.3686 31.4546 22.878 31.5497 22.3358H27.0571C27.1522 22.878 27.4293 23.3686 27.8398 23.7219C28.2504 24.0752 28.7684 24.2687 29.3034 24.2687Z" fill="url(#paint22_linear)"/>
<path opacity="0.7" d="M20.0428 22.3358H15.543C15.6421 22.8757 15.9211 23.363 16.3319 23.7135C16.7427 24.0641 17.2594 24.256 17.7929 24.256C18.3264 24.256 18.8431 24.0641 19.2539 23.7135C19.6647 23.363 19.9437 22.8757 20.0428 22.3358Z" fill="url(#paint23_linear)"/>
<path opacity="0.7" d="M47.8245 31.9468C47.8396 31.1453 47.7887 30.3439 47.6723 29.5513C46.2128 20.3788 42.0576 11.8878 35.7669 5.22292C34.3187 3.60726 32.5674 2.31073 30.619 1.41166C28.6706 0.512585 26.5654 0.0296269 24.4307 -0.00803844C22.2959 -0.0457038 20.1759 0.362706 18.1988 1.19252C16.2216 2.02233 14.4283 3.25632 12.9271 4.81993C6.42019 11.265 1.9892 19.6105 0.231927 28.7304C0.091984 29.5186 0.0144371 30.3173 5.0655e-05 31.1184C-0.00810593 34.3234 0.968976 37.4488 2.7913 40.0468C4.61363 42.6449 7.18767 44.5821 10.1446 45.5811C10.1446 45.5811 19.637 49.3125 35.035 46.5811C42.187 45.4319 47.7085 39.3573 47.8245 31.9468ZM36.4335 25.2304C36.4375 25.2526 36.4375 25.2753 36.4335 25.2975V35.9468C36.4335 36.1091 36.3709 36.2647 36.2595 36.3795C36.1481 36.4943 35.997 36.5587 35.8394 36.5587H16.9995C16.8419 36.5587 16.6907 36.4943 16.5793 36.3795C16.4679 36.2647 16.4053 36.1091 16.4053 35.9468V25.1931C15.7893 24.9117 15.2657 24.4526 14.8979 23.8711C14.5301 23.2897 14.3339 22.6109 14.3329 21.917C14.3335 21.812 14.361 21.709 14.4126 21.6184L18.0356 15.0961C18.0863 15.0011 18.1607 14.922 18.2512 14.8668C18.3417 14.8117 18.445 14.7826 18.5501 14.7826H34.3322C34.437 14.7841 34.5397 14.8139 34.6299 14.8688C34.7201 14.9238 34.7949 15.0022 34.8466 15.0961L38.4697 21.6184C38.5245 21.7076 38.5523 21.8115 38.5494 21.917C38.5468 22.6163 38.3458 23.2997 37.9712 23.883C37.5966 24.4663 37.0647 24.9243 36.4408 25.2005L36.4335 25.2304Z" fill="url(#paint24_linear)"/>
<path opacity="0.7" d="M35.0564 24.2761C35.592 24.2744 36.1101 24.0793 36.5206 23.7248C36.931 23.3702 37.2077 22.8788 37.3027 22.3358H32.8101C32.9037 22.8794 33.18 23.3717 33.5907 23.7265C34.0015 24.0813 34.5203 24.2758 35.0564 24.2761Z" fill="url(#paint25_linear)"/>
<path opacity="0.7" d="M32.1726 23.9179C31.8567 24.4043 31.4293 24.803 30.9282 25.0787C30.427 25.3545 29.8676 25.4987 29.2995 25.4987C28.7313 25.4987 28.1719 25.3545 27.6708 25.0787C27.1696 24.803 26.7422 24.4043 26.4264 23.9179C26.1088 24.4043 25.68 24.8028 25.1778 25.0783C24.6755 25.3538 24.1151 25.498 23.546 25.498C22.977 25.498 22.4166 25.3538 21.9143 25.0783C21.412 24.8028 20.9833 24.4043 20.6657 23.9179C20.3472 24.4078 19.9157 24.8087 19.4099 25.0847C18.9041 25.3608 18.3397 25.5035 17.7673 25.5H17.5571V35.3507H19.6585V28.7388C19.6594 28.4599 19.7142 28.184 19.8195 27.927C19.9249 27.6701 20.0788 27.4373 20.2723 27.2422C20.4658 27.0471 20.6951 26.8935 20.9467 26.7905C21.1984 26.6874 21.4674 26.6368 21.7381 26.6418H23.4627C24.0022 26.6438 24.519 26.8653 24.9004 27.2582C25.2818 27.651 25.497 28.1832 25.4989 28.7388V35.3358H35.2811V25.4925H35.0783C34.5052 25.4981 33.9398 25.3572 33.4327 25.0823C32.9256 24.8075 32.4926 24.4074 32.1726 23.9179ZM33.1508 30.9254C33.1508 31.3707 32.979 31.7978 32.6733 32.1127C32.3675 32.4276 31.9528 32.6045 31.5204 32.6045H28.2597C27.8266 32.6045 27.4111 32.4278 27.1042 32.1131C26.7973 31.7984 26.6239 31.3714 26.622 30.9254V28.3582C26.6182 28.1342 26.6577 27.9117 26.7383 27.7036C26.8188 27.4955 26.9389 27.3061 27.0913 27.1463C27.2438 26.9865 27.4256 26.8596 27.6262 26.773C27.8268 26.6863 28.0421 26.6418 28.2597 26.6418H31.5204C31.7373 26.6427 31.9519 26.6881 32.1516 26.7751C32.3514 26.8622 32.5324 26.9892 32.684 27.1489C32.8357 27.3086 32.9551 27.4978 33.0352 27.7053C33.1153 27.9129 33.1546 28.1349 33.1508 28.3582V30.9254Z" fill="url(#paint26_linear)"/>
</g>
<defs>
<linearGradient id="paint0_linear" x1="15.543" y1="23.2985" x2="20.0428" y2="23.2985" gradientUnits="userSpaceOnUse">
<stop stop-color="white"/>
<stop offset="1" stop-color="white"/>
</linearGradient>
<linearGradient id="paint1_linear" x1="119.426" y1="344.232" x2="135.569" y2="344.232" gradientUnits="userSpaceOnUse">
<stop stop-color="white"/>
<stop offset="1" stop-color="white"/>
</linearGradient>
<linearGradient id="paint2_linear" x1="188.082" y1="167.408" x2="212.206" y2="167.408" gradientUnits="userSpaceOnUse">
<stop stop-color="white"/>
<stop offset="1" stop-color="white"/>
</linearGradient>
<linearGradient id="paint3_linear" x1="153.547" y1="82.6789" x2="181.491" y2="82.6789" gradientUnits="userSpaceOnUse">
<stop stop-color="white"/>
<stop offset="1" stop-color="white"/>
</linearGradient>
<linearGradient id="paint4_linear" x1="412.76" y1="1607.09" x2="2542.05" y2="1607.09" gradientUnits="userSpaceOnUse">
<stop stop-color="white"/>
<stop offset="1" stop-color="white"/>
</linearGradient>
<linearGradient id="paint5_linear" x1="194.811" y1="82.6789" x2="222.665" y2="82.6789" gradientUnits="userSpaceOnUse">
<stop stop-color="white"/>
<stop offset="1" stop-color="white"/>
</linearGradient>
<linearGradient id="paint6_linear" x1="236.235" y1="82.9313" x2="264.089" y2="82.9313" gradientUnits="userSpaceOnUse">
<stop stop-color="white"/>
<stop offset="1" stop-color="white"/>
</linearGradient>
<linearGradient id="paint7_linear" x1="475.672" y1="143.014" x2="1070.45" y2="143.014" gradientUnits="userSpaceOnUse">
<stop stop-color="white"/>
<stop offset="1" stop-color="white"/>
</linearGradient>
<linearGradient id="paint8_linear" x1="447.542" y1="477.801" x2="880.008" y2="477.801" gradientUnits="userSpaceOnUse">
<stop stop-color="white"/>
<stop offset="1" stop-color="white"/>
</linearGradient>
<linearGradient id="paint9_linear" x1="112.065" y1="82.2827" x2="140.009" y2="82.2827" gradientUnits="userSpaceOnUse">
<stop stop-color="white"/>
<stop offset="1" stop-color="white"/>
</linearGradient>
<linearGradient id="paint10_linear" x1="153.547" y1="82.6789" x2="181.491" y2="82.6789" gradientUnits="userSpaceOnUse">
<stop stop-color="white"/>
<stop offset="1" stop-color="white"/>
</linearGradient>
<linearGradient id="paint11_linear" x1="475.672" y1="143.014" x2="1070.45" y2="143.014" gradientUnits="userSpaceOnUse">
<stop stop-color="white"/>
<stop offset="1" stop-color="white"/>
</linearGradient>
<linearGradient id="paint12_linear" x1="188.082" y1="167.408" x2="212.206" y2="167.408" gradientUnits="userSpaceOnUse">
<stop stop-color="white"/>
<stop offset="1" stop-color="white"/>
</linearGradient>
<linearGradient id="paint13_linear" x1="194.811" y1="82.6789" x2="222.665" y2="82.6789" gradientUnits="userSpaceOnUse">
<stop stop-color="white"/>
<stop offset="1" stop-color="white"/>
</linearGradient>
<linearGradient id="paint14_linear" x1="119.426" y1="344.232" x2="135.569" y2="344.232" gradientUnits="userSpaceOnUse">
<stop stop-color="white"/>
<stop offset="1" stop-color="white"/>
</linearGradient>
<linearGradient id="paint15_linear" x1="236.235" y1="82.9313" x2="264.089" y2="82.9313" gradientUnits="userSpaceOnUse">
<stop stop-color="white"/>
<stop offset="1" stop-color="white"/>
</linearGradient>
<linearGradient id="paint16_linear" x1="447.542" y1="477.801" x2="880.008" y2="477.801" gradientUnits="userSpaceOnUse">
<stop stop-color="white"/>
<stop offset="1" stop-color="white"/>
</linearGradient>
<linearGradient id="paint17_linear" x1="113.942" y1="1494.1" x2="4069.12" y2="1494.1" gradientUnits="userSpaceOnUse">
<stop stop-color="white"/>
<stop offset="1" stop-color="white"/>
</linearGradient>
<linearGradient id="paint18_linear" x1="153.547" y1="82.6789" x2="181.491" y2="82.6789" gradientUnits="userSpaceOnUse">
<stop stop-color="white"/>
<stop offset="1" stop-color="white"/>
</linearGradient>
<linearGradient id="paint19_linear" x1="188.082" y1="167.408" x2="212.206" y2="167.408" gradientUnits="userSpaceOnUse">
<stop stop-color="white"/>
<stop offset="1" stop-color="white"/>
</linearGradient>
<linearGradient id="paint20_linear" x1="119.426" y1="344.232" x2="135.569" y2="344.232" gradientUnits="userSpaceOnUse">
<stop stop-color="white"/>
<stop offset="1" stop-color="white"/>
</linearGradient>
<linearGradient id="paint21_linear" x1="475.672" y1="143.014" x2="1070.45" y2="143.014" gradientUnits="userSpaceOnUse">
<stop stop-color="white"/>
<stop offset="1" stop-color="white"/>
</linearGradient>
<linearGradient id="paint22_linear" x1="194.811" y1="82.6789" x2="222.665" y2="82.6789" gradientUnits="userSpaceOnUse">
<stop stop-color="white"/>
<stop offset="1" stop-color="white"/>
</linearGradient>
<linearGradient id="paint23_linear" x1="112.065" y1="82.2827" x2="140.009" y2="82.2827" gradientUnits="userSpaceOnUse">
<stop stop-color="white"/>
<stop offset="1" stop-color="white"/>
</linearGradient>
<linearGradient id="paint24_linear" x1="0" y1="1517.67" x2="3157.06" y2="1517.67" gradientUnits="userSpaceOnUse">
<stop stop-color="white"/>
<stop offset="1" stop-color="white"/>
</linearGradient>
<linearGradient id="paint25_linear" x1="236.235" y1="82.9313" x2="264.089" y2="82.9313" gradientUnits="userSpaceOnUse">
<stop stop-color="white"/>
<stop offset="1" stop-color="white"/>
</linearGradient>
<linearGradient id="paint26_linear" x1="447.542" y1="477.801" x2="880.008" y2="477.801" gradientUnits="userSpaceOnUse">
<stop stop-color="white"/>
<stop offset="1" stop-color="white"/>
</linearGradient>
<clipPath id="clip0">
<rect width="206" height="49" fill="white"/>
</clipPath>
</defs>
</svg>
