<svg width="24" height="24" viewBox="0 0 24 24" fill="none" xmlns="http://www.w3.org/2000/svg">
<g clip-path="url(#clip0)">
<path d="M18.5973 5.3834C18.4961 5.28219 18.3632 5.23157 18.2303 5.23157C18.0974 5.23157 17.9644 5.28215 17.8632 5.38335C17.6608 5.58575 17.6608 5.9151 17.8632 6.11746C18.0657 6.31996 18.395 6.31986 18.5973 6.11746V6.11741C18.6954 6.01935 18.7494 5.88903 18.7494 5.75038C18.7494 5.61182 18.6954 5.48146 18.5973 5.3834Z" fill="#6B4DFF"/>
<path d="M10.0035 13.0017C9.86297 12.8612 9.73027 12.7932 9.60521 12.7973C9.48019 12.8016 9.35583 12.8654 9.23222 12.9891L8.81494 13.4063L9.59888 14.1903L10.0162 13.773C10.1398 13.6494 10.2037 13.5251 10.2079 13.4C10.2121 13.275 10.144 13.1423 10.0035 13.0017Z" fill="#6B4DFF"/>
<path d="M23.9651 9.26443L22.8217 2.93983C22.6604 2.04748 21.9525 1.33952 21.0601 1.17818L14.7355 0.0347605C14.0306 -0.0926924 13.3078 0.13362 12.8015 0.639916L0.640077 12.8014C0.227343 13.2141 0 13.7629 0 14.3466C0 14.9302 0.227296 15.4791 0.640077 15.8917L8.10819 23.3598C8.52092 23.7726 9.06969 23.9999 9.65337 23.9999C10.2371 23.9999 10.7859 23.7726 11.1986 23.3598L23.36 11.1984C23.8663 10.6921 24.0925 9.96906 23.9651 9.26443ZM9.00247 18.1287C8.97294 18.2285 8.91326 18.3232 8.82341 18.4131C8.73341 18.5031 8.63867 18.5628 8.53892 18.5922C8.43917 18.6218 8.35709 18.6042 8.29236 18.5395L5.61608 15.8632C5.55149 15.7986 5.52965 15.7207 5.55074 15.6294C5.57174 15.5381 5.62166 15.4531 5.70036 15.3743L7.16286 13.9118C7.22746 13.8473 7.3048 13.8262 7.39461 13.8486C7.48461 13.8711 7.56739 13.9202 7.64328 13.9962C7.72475 14.0777 7.77608 14.1641 7.79717 14.2553C7.81817 14.3467 7.79778 14.4232 7.736 14.485L6.64438 15.5767L7.35669 16.289L7.99311 15.6525C8.05484 15.5908 8.12862 15.5676 8.21436 15.583C8.30005 15.5985 8.37805 15.6414 8.44822 15.7116C8.51286 15.7762 8.55359 15.8507 8.57047 15.9349C8.58725 16.0192 8.56344 16.0937 8.49884 16.1583L7.86242 16.7947L8.94978 17.8821C9.01451 17.9468 9.032 18.029 9.00247 18.1287ZM12.5849 14.483C12.5695 14.6445 12.5126 14.7745 12.4142 14.8729C12.3158 14.9713 12.2049 15.0007 12.0813 14.9614L10.3828 14.4177L10.1046 14.6959L11.1203 15.7116C11.185 15.7762 11.2025 15.8585 11.173 15.9582C11.1434 16.058 11.0838 16.1528 10.9939 16.2427C10.9039 16.3326 10.8092 16.3923 10.7095 16.4217C10.6097 16.4513 10.5276 16.4337 10.4629 16.369L7.78241 13.6885C7.72902 13.6351 7.70169 13.5699 7.70024 13.4925C7.69888 13.4153 7.7277 13.3471 7.78672 13.2881L8.65916 12.4157C9.35033 11.7245 9.99664 11.6795 10.5979 12.2808C11.0362 12.7192 11.1514 13.1744 10.9435 13.6463L12.389 14.0636C12.4228 14.0693 12.4551 14.0875 12.486 14.1184C12.5674 14.2 12.6004 14.3214 12.5849 14.483ZM14.9135 12.323L13.4132 13.8234C13.3345 13.9021 13.2495 13.9519 13.1581 13.973C13.0668 13.9941 12.9889 13.9723 12.9243 13.9076L10.248 11.2313C10.1834 11.1668 10.1615 11.0889 10.1826 10.9975C10.2037 10.9062 10.2536 10.8212 10.3323 10.7425L11.8327 9.24212C11.8973 9.17753 11.9746 9.15643 12.0644 9.17884C12.1544 9.20134 12.2372 9.25051 12.3131 9.32645C12.3946 9.40796 12.4459 9.49435 12.467 9.58562C12.488 9.67702 12.4676 9.75352 12.4058 9.8153L11.2763 10.9448L11.9886 11.6572L12.6208 11.0249C12.6826 10.9632 12.7564 10.9399 12.8421 10.9553C12.9278 10.9708 13.0058 11.0137 13.076 11.0839C13.1406 11.1485 13.1814 11.223 13.1982 11.3073C13.215 11.3916 13.1912 11.4661 13.1266 11.5307L12.4943 12.1629L13.2108 12.8794L14.3403 11.7498C14.402 11.6881 14.4787 11.6677 14.57 11.6887C14.6613 11.7098 14.7476 11.7611 14.8292 11.8426C14.905 11.9184 14.9542 12.0013 14.9767 12.0912C14.9993 12.1812 14.9781 12.2584 14.9135 12.323ZM17.1851 10.0514L15.6847 11.5518C15.606 11.6305 15.521 11.6804 15.4296 11.7015C15.3383 11.7226 15.2605 11.7008 15.1958 11.6361L12.5195 8.95979C12.4549 8.8952 12.4331 8.81729 12.4541 8.72598C12.4752 8.63462 12.5251 8.54968 12.6038 8.47093L14.1041 6.97056C14.1687 6.90597 14.2461 6.88487 14.3359 6.90728C14.4258 6.92983 14.5087 6.97895 14.5846 7.05489C14.666 7.1364 14.7174 7.22279 14.7385 7.31406C14.7595 7.40547 14.7391 7.48197 14.6773 7.54375L13.5477 8.67329L14.2601 9.3856L14.8923 8.75335C14.954 8.69162 15.0278 8.66837 15.1135 8.68379C15.1992 8.69926 15.2772 8.7422 15.3474 8.81237C15.412 8.87701 15.4528 8.95149 15.4697 9.03573C15.4864 9.12001 15.4626 9.19454 15.398 9.25914L14.7658 9.89138L15.4822 10.6078L16.6118 9.47827C16.6735 9.41654 16.7501 9.3962 16.8415 9.4172C16.9329 9.43829 17.0192 9.48952 17.1007 9.57104C17.1765 9.64684 17.2257 9.7298 17.2482 9.81966C17.2709 9.90952 17.2498 9.98677 17.1851 10.0514ZM19.5924 7.11269C19.2168 7.48825 18.7234 7.67603 18.2301 7.67603C17.7367 7.67603 17.2434 7.48825 16.8678 7.11264C16.1166 6.36147 16.1166 5.13925 16.8678 4.38808C17.619 3.63691 18.8412 3.63686 19.5924 4.38808C19.9563 4.75197 20.1566 5.23577 20.1566 5.75036C20.1566 6.26495 19.9562 6.74875 19.5924 7.11269Z" fill="#6B4DFF"/>
</g>
<defs>
<clipPath id="clip0">
<rect width="24" height="24" fill="white"/>
</clipPath>
</defs>
</svg>
