<svg width="24" height="17" viewBox="0 0 24 17" fill="none" xmlns="http://www.w3.org/2000/svg">
<path d="M23.6241 7.76947C23.5999 7.75831 23.5749 7.74801 23.5491 7.73861L21.846 7.10742L12.4012 10.5489C12.1502 10.6404 11.8498 10.6404 11.5989 10.5489L2.15408 7.10742L0.450916 7.73861C0.0369773 7.88983 -0.120522 8.24335 0.0992038 8.52824C0.112864 8.54593 0.127831 8.56315 0.144053 8.57981L12 12.8997L23.856 8.57981C24.1171 8.31196 24.0133 7.94917 23.6241 7.76947Z" fill="#6B4DFF"/>
<path d="M23.8966 11.5168C23.8172 11.4156 23.6965 11.3325 23.5494 11.2779L21.8463 10.6467L12.4015 14.0882C12.1505 14.1796 11.8501 14.1796 11.5992 14.0882L2.15432 10.6467L0.451152 11.2779C0.0345511 11.4326 -0.120839 11.7905 0.10401 12.0772C0.183413 12.1784 0.304099 12.2615 0.451152 12.3161L11.594 16.4454C11.8476 16.5394 12.1529 16.5394 12.4066 16.4454L23.5494 12.3161C23.966 12.1614 24.1214 11.8035 23.8966 11.5168Z" fill="#6B4DFF"/>
<path d="M23.6241 4.23045C23.5999 4.21929 23.5749 4.20899 23.5491 4.19959L12.4063 0.070482C12.1527 -0.023494 11.8474 -0.023494 11.5938 0.070482L0.450916 4.19959C0.0369773 4.3508 -0.120522 4.70431 0.0992038 4.98917C0.112864 5.00687 0.127831 5.02408 0.144053 5.04074L12 9.36035L23.856 5.04074C24.1171 4.77291 24.0133 4.41014 23.6241 4.23045Z" fill="#6B4DFF"/>
</svg>
