<svg width="24" height="17" viewBox="0 0 24 17" fill="none" xmlns="http://www.w3.org/2000/svg">
<path d="M3.5625 7.74199C4.12976 7.74199 4.64319 7.58536 5.02258 7.33385L7.10394 8.04996C7.09351 8.1083 7.07812 8.16564 7.07812 8.22587C7.07812 9.02628 8.02441 9.67749 9.1875 9.67749C10.3506 9.67749 11.2969 9.02628 11.2969 8.22587C11.2969 8.00245 11.217 7.79328 11.0854 7.60401L13.9089 5.66095C14.1839 5.75155 14.4879 5.80649 14.8125 5.80649C15.9756 5.80649 16.9219 5.15528 16.9219 4.35487C16.9219 4.20416 16.8788 4.06165 16.8166 3.92493L19.2698 2.65904C19.6046 2.8129 20.0057 2.90325 20.4375 2.90325C21.6006 2.90325 22.5469 2.25203 22.5469 1.45162C22.5469 0.651214 21.6006 0 20.4375 0C19.2744 0 18.3281 0.651214 18.3281 1.45162C18.3281 1.60233 18.3712 1.74485 18.4334 1.88157L15.9802 3.14745C15.6454 2.9936 15.2443 2.90325 14.8125 2.90325C13.6494 2.90325 12.7031 3.55446 12.7031 4.35487C12.7031 4.57828 12.783 4.78746 12.9146 4.97673L10.0911 6.91978C9.8161 6.82918 9.51215 6.77424 9.1875 6.77424C8.62024 6.77424 8.10681 6.93087 7.72742 7.18239L5.64606 6.46628C5.65649 6.40794 5.67188 6.3506 5.67188 6.29037C5.67188 5.48996 4.72559 4.83875 3.5625 4.83875C2.39941 4.83875 1.45312 5.48996 1.45312 6.29037C1.45312 7.09078 2.39941 7.74199 3.5625 7.74199Z" fill="#6B4DFF"/>
<path d="M23.2969 15.5486H22.5469V5.32251C22.5469 5.05511 22.2323 4.83862 21.8438 4.83862H19.0312C18.6427 4.83862 18.3281 5.05511 18.3281 5.32251V15.5486H16.9219V8.22581C16.9219 7.95842 16.6073 7.74193 16.2188 7.74193H13.4062C13.0177 7.74193 12.7031 7.95842 12.7031 8.22581V15.5486H11.2969V12.0969C11.2969 11.8295 10.9823 11.613 10.5938 11.613H7.78125C7.3927 11.613 7.07812 11.8295 7.07812 12.0969V15.5486H5.67188V10.1613C5.67188 9.89395 5.3573 9.67746 4.96875 9.67746H2.15625C1.7677 9.67746 1.45312 9.89395 1.45312 10.1613V15.5486H0.703125C0.314575 15.5486 0 15.7651 0 16.0325C0 16.2999 0.314575 16.5164 0.703125 16.5164H23.2969C23.6854 16.5164 24 16.2999 24 16.0325C24 15.7651 23.6854 15.5486 23.2969 15.5486Z" fill="#6B4DFF"/>
</svg>
