<svg width="24" height="13" viewBox="0 0 24 13" fill="none" xmlns="http://www.w3.org/2000/svg">
<path d="M1.40625 12.6453H14.5474C14.3052 12.3594 14.1562 12.0316 14.1562 11.6775V10.7097H0.703124C0.314812 10.7097 0 10.9263 0 11.1936V11.6775C0 12.2119 0.629578 12.6453 1.40625 12.6453Z" fill="#6B4DFF"/>
<path d="M1.40625 1.51608V9.74194H14.1562V3.93545C14.1562 2.86799 15.4176 1.99995 16.9688 1.99995H22.5938V1.51608C22.5938 0.715619 21.6475 0.0644531 20.4844 0.0644531H3.51562C2.35247 0.0644531 1.40625 0.715619 1.40625 1.51608Z" fill="#6B4DFF"/>
<path d="M22.5938 2.96753H16.9688C16.1935 2.96753 15.5625 3.4018 15.5625 3.9353V11.6775C15.5625 12.211 16.1935 12.6453 16.9688 12.6453H22.5938C23.369 12.6453 24 12.211 24 11.6775V3.9353C24 3.4018 23.369 2.96753 22.5938 2.96753ZM19.7812 4.41919C20.1696 4.41919 20.4844 4.63578 20.4844 4.90308C20.4844 5.17031 20.1696 5.38696 19.7812 5.38696C19.3929 5.38696 19.0781 5.17031 19.0781 4.90308C19.0781 4.63578 19.3929 4.41919 19.7812 4.41919ZM20.4844 11.1936H19.0781C18.6895 11.1936 18.375 10.9772 18.375 10.7097C18.375 10.4423 18.6895 10.2258 19.0781 10.2258H20.4844C20.873 10.2258 21.1875 10.4423 21.1875 10.7097C21.1875 10.9772 20.873 11.1936 20.4844 11.1936Z" fill="#6B4DFF"/>
</svg>
