<svg width="24" height="24" viewBox="0 0 24 24" fill="none" xmlns="http://www.w3.org/2000/svg">
<path d="M22.1673 13.5623V11.5953C22.1673 8.87948 21.1097 6.32629 19.1894 4.40595C17.269 2.48557 14.7158 1.42798 12 1.42798C9.28422 1.42798 6.73103 2.48557 4.81065 4.40595C2.89032 6.32629 1.83272 8.87952 1.83272 11.5953V13.5623C0.812439 13.6202 0 14.4683 0 15.5029V18.5486C0 19.6205 0.872111 20.4927 1.94405 20.4927H3.06793C3.1479 21.6524 4.11634 22.5718 5.29604 22.5718C6.52792 22.5718 7.53016 21.5696 7.53016 20.3377V13.7139C7.53016 12.4821 6.52792 11.4798 5.29604 11.4798C5.06978 11.4798 4.85143 11.5139 4.64546 11.5767C4.65554 7.5298 7.95081 4.24048 12 4.24048C16.0492 4.24048 19.3445 7.5298 19.3545 11.5767C19.1486 11.5139 18.9302 11.4798 18.704 11.4798C17.4721 11.4798 16.4698 12.4821 16.4698 13.7139V20.3376C16.4698 21.5695 17.4721 22.5717 18.704 22.5717C19.8837 22.5717 20.8521 21.6524 20.9321 20.4926H22.056C23.1279 20.4926 24 19.6205 24 18.5485V15.5029C24 14.4683 23.1876 13.6202 22.1673 13.5623Z" fill="#6B4DFF"/>
</svg>
