<svg width="24" height="24" viewBox="0 0 24 24" fill="none" xmlns="http://www.w3.org/2000/svg">
<path d="M22.4231 3.35902C22.38 3.04959 22.1574 2.79505 21.8564 2.71139L12.2104 0.028828C12.0729 -0.00944656 11.9277 -0.00944656 11.79 0.028828L2.14402 2.71139C1.84305 2.79505 1.62041 3.04948 1.57733 3.35902C1.52138 3.76132 0.245041 13.2668 3.51877 17.9955C6.78862 22.7185 11.6124 23.9289 11.8161 23.9781C11.8766 23.9927 11.9383 24 12.0002 24C12.0621 24 12.1238 23.9926 12.1844 23.9781C12.3882 23.9289 17.2119 22.7185 20.4817 17.9955C23.7554 13.2669 22.4791 3.76143 22.4231 3.35902ZM18.2207 8.90841L11.6411 15.488C11.488 15.6411 11.2872 15.7177 11.0866 15.7177C10.8859 15.7177 10.6851 15.6412 10.532 15.488L6.46392 11.4199C6.31678 11.2729 6.23417 11.0733 6.23417 10.8653C6.23417 10.6573 6.31688 10.4578 6.46392 10.3108L7.27166 9.50302C7.57796 9.19683 8.07458 9.19672 8.38078 9.50302L11.0866 12.2088L16.3038 6.99144C16.4508 6.84431 16.6504 6.76169 16.8584 6.76169C17.0664 6.76169 17.2659 6.84431 17.4129 6.99144L18.2207 7.79918C18.527 8.10548 18.527 8.60211 18.2207 8.90841Z" fill="#6B4DFF"/>
</svg>
